<svg width="162" height="46" viewBox="0 0 162 46" fill="none" xmlns="http://www.w3.org/2000/svg">
<g clip-path="url(#clip0_4149_1051)">
<mask id="mask0_4149_1051" style="mask-type:luminance" maskUnits="userSpaceOnUse" x="0" y="0" width="162" height="46">
<path d="M162 0H0V46H162V0Z" fill="white"/>
</mask>
<g mask="url(#mask0_4149_1051)">
<path d="M16.3847 0V9.39471H5.24698V0H0V24.079H5.24698V14.1002H16.3847V24.079H21.6317V0H16.3847Z" fill="#003B83"/>
<mask id="mask1_4149_1051" style="mask-type:luminance" maskUnits="userSpaceOnUse" x="0" y="0" width="162" height="46">
<path d="M161.353 0H0V46H161.353V0Z" fill="white"/>
</mask>
<g mask="url(#mask1_4149_1051)">
<path d="M135.488 4.70547H145.258V11.6988H134.152V6.08466C134.168 5.80882 134.12 5.30582 134.345 5.01376C134.603 4.70547 135.005 4.72169 135.488 4.72169M130.096 1.36296C129.002 2.49877 128.953 4.15379 128.921 5.11111V24.0628H134.152V16.388H145.258V24.0628H150.505V0H134.184C132.639 0 131.174 0.243386 130.096 1.36296Z" fill="#003B83"/>
<path d="M93.0615 0H76.709V24.079H81.9399V4.70547H91.7578C92.2407 4.70547 92.6431 4.70547 92.8845 4.99753C93.1259 5.30582 93.0776 5.80882 93.0937 6.06843V24.0628H98.3246V5.12734C98.2924 4.17002 98.2441 2.49877 97.1497 1.37919C96.0552 0.259612 94.6067 0.0162257 93.0454 0.0162257" fill="#003B83"/>
<path d="M66.8427 17.9944C66.8105 18.2702 66.8749 18.757 66.6335 19.0653C66.3921 19.3735 65.9897 19.3573 65.5068 19.3573H55.6889V0H50.4419V24.0628H66.7944C68.3396 24.0628 69.7881 23.8194 70.8987 22.6836C71.9931 21.5478 72.0253 19.909 72.0736 18.9354V0H66.8427V17.9944Z" fill="#003B83"/>
<path d="M119.377 17.9943C119.361 18.2701 119.409 18.7731 119.168 19.0652C118.926 19.3734 118.508 19.3572 118.025 19.3572H108.207V4.70536H118.025C118.508 4.70536 118.926 4.70536 119.168 4.99742C119.393 5.28948 119.345 5.80871 119.377 6.06832V17.978V17.9943ZM124.592 5.12723C124.56 4.16991 124.527 2.49866 123.433 1.37908C122.338 0.259499 120.89 0.0161133 119.329 0.0161133H102.976V24.0951H119.329C120.89 24.0951 122.338 23.8518 123.433 22.7159C124.527 21.5801 124.56 19.9413 124.592 18.9678V5.12723Z" fill="#003B83"/>
</g>
<path d="M42.3782 0L36.0368 10.5305L29.6953 0H23.4666L33.2523 15.1711V24.079H38.8373V15.1711L48.607 0H42.3782Z" fill="#003B83"/>
<path d="M161.353 0H155.768V24.079H161.353V0Z" fill="#003B83"/>
<path fill-rule="evenodd" clip-rule="evenodd" d="M0 29.7092H161.353V45.9999H0V29.7092ZM145.225 35.875C145.225 36.3943 145.515 36.7512 146.111 36.9459H146.159L148.316 37.7085C148.895 37.9032 149.314 38.1953 149.555 38.5685C149.813 38.9417 149.925 39.3798 149.893 39.8828C149.845 40.6616 149.539 41.2782 148.96 41.7325C148.38 42.1868 147.527 42.4302 146.433 42.4302C145.419 42.4465 144.566 42.3491 143.89 42.1544V40.8888C144.678 41.0997 145.531 41.1808 146.449 41.1808C147.141 41.1646 147.656 41.051 147.994 40.8077C148.316 40.5643 148.493 40.256 148.493 39.899C148.493 39.3636 148.203 38.9904 147.624 38.7957L145.467 38.0331C145 37.8708 144.614 37.6112 144.308 37.2704C144.002 36.9297 143.841 36.4754 143.841 35.9399C143.841 35.2098 144.083 34.6094 144.566 34.1064C145.065 33.6197 145.821 33.3438 146.851 33.2789C147.543 33.2465 148.316 33.3276 149.137 33.5061V34.7717C148.364 34.577 147.624 34.5121 146.899 34.5607C146.288 34.6094 145.869 34.7392 145.612 34.9502C145.354 35.1611 145.225 35.4694 145.225 35.875ZM136.937 42.2355V33.4736H138.321V40.9699H142.779V42.2355H136.937ZM130.193 38.4062H132.8H132.816L131.496 35.0637L130.193 38.4062ZM127.344 42.2355L130.853 33.2951H132.108L135.617 42.2355H134.281L133.283 39.6556H129.694L128.68 42.2355H127.344ZM124.672 33.4736H126.056V42.2355H124.672V33.4736ZM123.352 42.2355H121.775L119.216 38.5685H118.363V42.2355H116.979V33.4736H119.634C120.697 33.4736 121.501 33.7008 122.016 34.1876C122.564 34.6905 122.837 35.2747 122.837 36.0373C122.837 36.7999 122.564 37.4165 122 37.8708C121.63 38.1791 121.179 38.39 120.632 38.4874L123.352 42.2355ZM119.795 34.723H118.363V37.3029H119.795C120.375 37.3029 120.793 37.1731 121.051 36.9135C121.324 36.6539 121.453 36.3294 121.453 35.9886C121.453 35.6479 121.308 35.3558 121.051 35.0962C120.793 34.8528 120.375 34.723 119.795 34.723ZM114.806 38.39H111.007V40.9537H115.289V42.2193H109.623V33.4574H115.192V34.723H111.007V37.1406H114.806V38.39ZM108.32 34.723H105.519V42.2193H104.135V34.723H101.318V33.4574H108.32V34.723ZM96.1034 38.4062H98.7108H98.7269L97.4071 35.0637L96.1034 38.4062ZM93.2546 42.2355L96.7633 33.2951H98.0187L101.527 42.2355H100.192L99.1937 39.6556H95.6045L94.5905 42.2355H93.2546ZM90.6472 35.6727V42.2355H91.967V33.4736H90.277L87.6053 40.0937L84.9174 33.4736H83.2274V42.2355H84.5311V35.6316L87.1385 42.2355H88.072L90.6472 35.6727ZM74.3912 40.7752C75.035 40.5805 75.5179 40.2398 75.8398 39.7368V39.7205C76.1617 39.2338 76.3226 38.5685 76.3226 37.8059C76.3226 37.0433 76.1617 36.4105 75.8398 35.9399C75.5179 35.4694 75.035 35.1286 74.3912 34.9339C74.1498 34.8528 73.8762 34.8041 73.5865 34.7717C73.2807 34.723 72.9749 34.723 72.6369 34.723H71.977V40.9699H72.6369C72.9749 40.9699 73.2968 40.9537 73.5865 40.9375C73.8762 40.9212 74.1498 40.8726 74.3912 40.7752ZM76.9986 35.226C77.2401 35.583 77.4332 35.9724 77.5459 36.4105V36.3943C77.6585 36.8161 77.7229 37.3029 77.7229 37.8059C77.7229 38.3089 77.6585 38.7794 77.5459 39.2338C77.4171 39.6881 77.2401 40.0937 76.9825 40.4507C76.7089 40.8077 76.387 41.1322 76.0007 41.3918C75.6306 41.6676 75.196 41.8623 74.697 42.0084C74.4073 42.1057 74.1015 42.1544 73.7635 42.1868C73.4255 42.2355 73.0553 42.2355 72.6369 42.2355H70.6089V33.4736H72.653C73.0553 33.4736 73.4255 33.4898 73.7635 33.5223C74.0854 33.5547 74.4073 33.6197 74.697 33.7008C75.196 33.863 75.6305 34.074 76.0168 34.3174C76.4031 34.5607 76.725 34.869 76.9986 35.226ZM68.4039 38.39H64.6216V40.9537H68.9028V42.2193H63.2374V33.4574H68.8063V34.723H64.6216V37.1406H68.4039V38.39ZM56.0751 41.1646C55.3025 40.402 54.9162 39.3311 54.9162 37.9519L54.9002 37.9357V37.7248C54.9002 36.4105 55.2864 35.3558 56.0751 34.5607C56.8476 33.7657 57.926 33.3438 59.3102 33.2789C60.0184 33.2465 60.7426 33.2951 61.483 33.4412V34.6905C60.7426 34.577 60.0827 34.5121 59.4872 34.5445C58.4571 34.5932 57.6846 34.8853 57.1695 35.4207C56.5901 36.0211 56.3004 36.8161 56.3004 37.7897V37.9195C56.3004 38.9579 56.5901 39.753 57.1695 40.2884C57.749 40.8239 58.5376 41.1159 59.5194 41.1484C60.1954 41.1809 60.8714 41.1322 61.5313 41.0348V42.2842C60.8714 42.3978 60.1471 42.4302 59.3585 42.3978C57.9421 42.3329 56.8476 41.9272 56.0751 41.1646ZM46.0801 42.2355V33.4736H47.2067L51.8421 39.8179V33.4736H53.2263V42.2355H52.0835L47.4642 35.9237V42.2355H46.0801ZM39.3524 38.4062H41.9597H41.9758L40.656 35.0637L39.3524 38.4062ZM36.5035 42.2355L40.0122 33.2951H41.2677L44.7764 42.2355H43.4405L42.4426 39.6556H38.8534L37.8394 42.2355H36.5035ZM33.4133 42.2355H32.2544L28.955 33.4736H30.3552L32.8339 40.0613L35.2964 33.4736H36.6967L33.4133 42.2355ZM24.8829 40.7752C25.5267 40.5805 26.0096 40.2398 26.3315 39.7368V39.7205C26.6534 39.2338 26.8143 38.5685 26.8143 37.8059C26.8143 37.0433 26.6534 36.4105 26.3315 35.9399C26.0096 35.4694 25.5267 35.1286 24.8829 34.9339C24.6415 34.8528 24.3679 34.8041 24.0782 34.7717C23.7724 34.723 23.4666 34.723 23.1286 34.723H22.4687V40.9699H23.1286C23.4666 40.9699 23.7885 40.9537 24.0782 40.9375C24.3679 40.9212 24.6415 40.8726 24.8829 40.7752ZM27.4742 35.226C27.7156 35.583 27.9088 35.9724 28.0214 36.4105L28.0054 36.3943C28.118 36.8161 28.1824 37.3029 28.1824 37.8059C28.1824 38.3089 28.1341 38.7794 28.0054 39.2338C27.8927 39.6881 27.7156 40.0937 27.4581 40.4507C27.1845 40.8077 26.8626 41.1322 26.4763 41.3918C26.1061 41.6676 25.6716 41.8623 25.1726 42.0084C24.8829 42.1057 24.5771 42.1544 24.2391 42.1868C23.9011 42.2355 23.5309 42.2355 23.1125 42.2355H21.0845V33.4736H23.1286C23.5309 33.4736 23.9011 33.4898 24.2391 33.5223C24.561 33.5547 24.8829 33.6197 25.1726 33.7008C25.6716 33.863 26.1061 34.0577 26.4924 34.3174C26.8787 34.5607 27.2006 34.869 27.4742 35.226ZM14.3407 38.4062H16.9481H16.9642L15.6444 35.0637L14.3407 38.4062ZM11.4919 42.2355L15.0006 33.2951H16.256L19.7647 42.2355H18.4288L17.4309 39.6556H13.8417L12.8277 42.2355H11.4919Z" fill="#003B83"/>
</g>
</g>
<defs>
<clipPath id="clip0_4149_1051">
<rect width="162" height="46" fill="white"/>
</clipPath>
</defs>
</svg>
