<svg width="95" height="90" viewBox="0 0 95 90" fill="none" xmlns="http://www.w3.org/2000/svg">
<path d="M59.6753 6.29898C59.2096 6.14017 58.7861 5.92284 58.4047 5.64698C58.0253 5.36544 57.7464 5.07701 57.5682 4.78168L58.2449 4.05205C58.4196 4.32079 58.6616 4.57767 58.9711 4.82267C59.2806 5.06768 59.6199 5.25312 59.989 5.379C60.3013 5.48551 60.5657 5.53762 60.782 5.53532C60.9983 5.53302 61.1713 5.49057 61.3009 5.40798C61.4324 5.31971 61.5233 5.20175 61.5737 5.0541C61.6357 4.87238 61.6197 4.70529 61.5259 4.55285C61.434 4.39473 61.2937 4.24861 61.1049 4.11449C60.9237 3.97663 60.715 3.83572 60.4788 3.69179C60.2483 3.54979 60.0179 3.3983 59.7875 3.23733C59.5647 3.07261 59.3686 2.8948 59.1992 2.70389C59.0373 2.50924 58.926 2.28742 58.8651 2.03844C58.8042 1.78946 58.828 1.50596 58.9364 1.18794C59.0468 0.864245 59.2327 0.597993 59.4941 0.389185C59.7631 0.176635 60.1007 0.0508905 60.507 0.0119528C60.921 -0.0307271 61.4005 0.0408908 61.9457 0.226806C62.3035 0.348813 62.6429 0.515283 62.964 0.726216C63.2851 0.937148 63.5472 1.17234 63.7504 1.43179L63.1077 2.17304C62.895 1.92301 62.6593 1.71266 62.4005 1.54201C62.1437 1.36567 61.8847 1.23296 61.6234 1.14388C61.3168 1.0393 61.0543 0.991001 60.8361 0.998981C60.6235 1.0089 60.4514 1.05799 60.3199 1.14626C60.1941 1.23647 60.105 1.35824 60.0527 1.51157C59.9907 1.69329 60.0028 1.86224 60.089 2.01843C60.1829 2.17087 60.3213 2.31318 60.5045 2.44537C60.6933 2.57949 60.9048 2.72136 61.1391 2.87097C61.3753 3.01491 61.6057 3.1664 61.8304 3.32543C62.0608 3.48641 62.2578 3.66138 62.4216 3.85035C62.591 4.04127 62.7034 4.26024 62.7586 4.50729C62.8195 4.75627 62.7967 5.03693 62.6902 5.34927C62.5817 5.66728 62.393 5.93257 62.124 6.14512C61.8626 6.35392 61.5249 6.47967 61.111 6.52235C60.699 6.55935 60.2204 6.48489 59.6753 6.29898Z" fill="white"/>
<path d="M66.9201 9.4861C66.5012 9.25165 66.1493 8.96525 65.8642 8.62691C65.5873 8.28627 65.3857 7.91556 65.2594 7.51479C65.1412 7.11171 65.1055 6.69637 65.1523 6.26876C65.1992 5.84116 65.3369 5.42316 65.5655 5.01479C65.7941 4.60642 66.0784 4.27048 66.4184 4.00699C66.7584 3.74351 67.1323 3.56084 67.5399 3.459C67.9506 3.35192 68.372 3.32996 68.8042 3.39312C69.2393 3.45104 69.669 3.5987 70.093 3.83608C70.5433 4.08812 70.9103 4.39671 71.1941 4.76185C71.4809 5.12176 71.6675 5.52535 71.7541 5.97261L70.7471 6.22377C70.6683 5.89774 70.5352 5.6135 70.3477 5.37105C70.1632 5.12336 69.927 4.91893 69.639 4.75774C69.3511 4.59655 69.0603 4.49567 68.7667 4.4551C68.4783 4.41746 68.1968 4.43521 67.9221 4.50834C67.6526 4.5844 67.4022 4.71239 67.1708 4.89231C66.9447 5.07516 66.7525 5.30795 66.5943 5.59067C66.436 5.87339 66.338 6.15892 66.3004 6.44728C66.268 6.73856 66.2898 7.01894 66.3659 7.28843C66.4472 7.56085 66.5793 7.81011 66.7621 8.03623C66.9502 8.26529 67.1882 8.4604 67.4762 8.62159C67.7641 8.78278 68.0605 8.87989 68.3651 8.91292C68.6728 8.94071 68.9876 8.90034 69.3096 8.79181L69.6176 9.78935C69.194 9.94417 68.7524 9.99608 68.2928 9.94507C67.8331 9.89406 67.3756 9.74107 66.9201 9.4861Z" fill="white"/>
<path d="M71.1316 11.9247L75.1975 7.11238L77.1705 8.77942C77.8122 9.32154 78.1862 9.89681 78.2927 10.5052C78.4038 11.1175 78.2328 11.6917 77.7798 12.228C77.4816 12.5809 77.1416 12.8159 76.7597 12.9332C76.3818 13.0459 75.9812 13.0412 75.5579 12.9193C75.1431 12.7966 74.7226 12.5552 74.2964 12.1951L72.8115 10.9404L73.5529 10.8717L72.0253 12.6798L71.1316 11.9247ZM74.2802 14.585L74.5387 11.8107L75.4943 12.6181L75.2426 15.3981L74.2802 14.585ZM73.4716 10.968L73.433 10.2048L74.8767 11.4246C75.2708 11.7576 75.6381 11.9226 75.9784 11.9196C76.3233 11.9204 76.6236 11.7695 76.8792 11.467C77.1386 11.16 77.2372 10.8387 77.175 10.5034C77.1173 10.1719 76.8914 9.83961 76.4972 9.50659L75.0535 8.2868L75.824 8.18372L73.4716 10.968Z" fill="white"/>
<path d="M78.8031 19.5385C78.5002 19.1509 78.285 18.744 78.1578 18.3181C78.0305 17.8921 77.9861 17.4699 78.0247 17.0515C78.0679 16.6293 78.1915 16.232 78.3953 15.8595C78.6039 15.4833 78.8926 15.1511 79.2613 14.8629C79.6301 14.5748 80.0199 14.3768 80.4306 14.2691C80.8461 14.1576 81.2615 14.1338 81.6768 14.1975C82.0969 14.2576 82.4982 14.4009 82.8808 14.6274C83.2633 14.8538 83.6042 15.1585 83.9035 15.5415C84.2064 15.9292 84.4197 16.3336 84.5433 16.7549C84.6705 17.1808 84.7125 17.6049 84.6693 18.027C84.6308 18.4455 84.5072 18.8428 84.2986 19.219C84.0948 19.5915 83.8085 19.9218 83.4397 20.21C83.0709 20.4982 82.6788 20.698 82.2634 20.8094C81.8479 20.9209 81.4325 20.9447 81.0171 20.8809C80.6018 20.8171 80.2028 20.672 79.8203 20.4456C79.4414 20.2238 79.1023 19.9215 78.8031 19.5385ZM79.606 18.8997C79.8018 19.1503 80.0254 19.3487 80.2767 19.4949C80.5281 19.6412 80.7927 19.7314 81.0706 19.7655C81.3533 19.7959 81.6319 19.7723 81.9064 19.6949C82.1893 19.6185 82.4585 19.4805 82.7138 19.281C82.969 19.0815 83.1656 18.8556 83.3034 18.6032C83.4497 18.3518 83.5399 18.0872 83.574 17.8093C83.6128 17.5276 83.5916 17.2472 83.5105 16.968C83.4293 16.6887 83.2909 16.4238 83.0951 16.1732C82.8993 15.9227 82.6757 15.7243 82.4243 15.578C82.1767 15.4365 81.9097 15.3482 81.6233 15.313C81.3454 15.2789 81.065 15.3001 80.782 15.3765C80.5075 15.454 80.2426 15.5924 79.9873 15.7919C79.7367 15.9877 79.5383 16.2113 79.3921 16.4627C79.2495 16.7187 79.1588 16.9876 79.12 17.2692C79.0859 17.5471 79.1094 17.8257 79.1906 18.105C79.2717 18.3842 79.4102 18.6491 79.606 18.8997Z" fill="white"/>
<path d="M82.4072 24.2619L88.0101 21.3813L88.545 22.4219L83.8226 24.8498L85.3288 27.7793L84.4483 28.232L82.4072 24.2619Z" fill="white"/>
<path d="M85.3526 30.3011L91.3592 28.4008L91.7121 29.5163L86.6494 31.118L87.643 34.2586L86.6992 34.5572L85.3526 30.3011Z" fill="white"/>
<path d="M88.082 45.2259L94.3576 45.7797L94.1155 48.523C94.0554 49.2044 93.8711 49.7904 93.5628 50.2812C93.2544 50.772 92.8545 51.1403 92.363 51.386C91.8715 51.6318 91.309 51.7267 90.6755 51.6708C90.0479 51.6154 89.5107 51.4235 89.0638 51.0949C88.623 50.7669 88.2937 50.3343 88.0761 49.7971C87.8585 49.2598 87.7797 48.6506 87.8399 47.9692L88.082 45.2259ZM88.9653 46.4784L88.8308 48.0024C88.7896 48.4686 88.8434 48.883 88.9921 49.2454C89.1409 49.6079 89.3684 49.896 89.6748 50.1098C89.9807 50.3295 90.3488 50.4584 90.7791 50.4964C91.2154 50.5349 91.6004 50.4725 91.934 50.3092C92.2731 50.1524 92.5476 49.9086 92.7575 49.5777C92.9674 49.2469 93.0929 48.8484 93.1341 48.3822L93.2686 46.8581L88.9653 46.4784Z" fill="white"/>
<path d="M86.1657 56.7152C86.3126 56.2457 86.5252 55.8375 86.8034 55.4908C87.0816 55.144 87.4038 54.8676 87.7701 54.6616C88.142 54.4573 88.5392 54.3332 88.9615 54.2893C89.3896 54.2472 89.827 54.296 90.2737 54.4358C90.7203 54.5755 91.1047 54.7837 91.4267 55.0605C91.7545 55.3391 92.0101 55.6674 92.1936 56.0454C92.3829 56.4252 92.493 56.8369 92.524 57.2804C92.555 57.7239 92.4979 58.1775 92.3528 58.6414C92.2059 59.1109 91.9943 59.5162 91.7179 59.8572C91.4396 60.204 91.1146 60.4795 90.7426 60.6837C90.3764 60.8898 89.9792 61.0139 89.5511 61.056C89.1288 61.0999 88.6942 61.052 88.2476 60.9122C87.8009 60.7725 87.4137 60.5634 87.0859 60.2848C86.7582 60.0062 86.5025 59.6779 86.319 59.2999C86.1355 58.9219 86.0283 58.5111 85.9973 58.0676C85.9645 57.6299 86.0206 57.1791 86.1657 56.7152ZM87.1476 57.013C87.0527 57.3165 87.0164 57.6132 87.0389 57.9031C87.0613 58.193 87.1375 58.4621 87.2674 58.7101C87.4029 58.96 87.5806 59.1759 87.8003 59.3578C88.0239 59.5472 88.2904 59.6903 88.5996 59.787C88.9088 59.8838 89.2064 59.9171 89.4924 59.8871C89.7824 59.8647 90.0514 59.7885 90.2994 59.6587C90.5533 59.5306 90.772 59.3539 90.9557 59.1284C91.1394 58.903 91.2787 58.6385 91.3736 58.335C91.4686 58.0315 91.5048 57.7348 91.4824 57.4449C91.4581 57.1607 91.3791 56.8908 91.2453 56.6352C91.1155 56.3871 90.9387 56.1683 90.715 55.9789C90.4953 55.797 90.2309 55.6577 89.9216 55.561C89.6182 55.466 89.3214 55.4298 89.0315 55.4523C88.7398 55.4804 88.467 55.5586 88.2132 55.6866C87.9651 55.8165 87.7492 55.9941 87.5656 56.2196C87.3819 56.445 87.2425 56.7095 87.1476 57.013Z" fill="white"/>
<path d="M83.5646 63.4222L90.0265 64.9366L89.3911 65.9723L83.5609 64.5814L83.8762 64.0674L87.7205 68.6957L87.1557 69.6163L81.3161 68.2407L81.622 67.742L85.4804 72.3474L84.8968 73.2986L80.6185 68.2246L81.268 67.1659L86.5473 68.3878L86.3779 68.664L82.9104 64.4885L83.5646 63.4222Z" fill="white"/>
<path d="M78.1795 71.8055L82.5829 76.3111L81.8941 76.9842L75.6779 76.2763L76.0191 75.9429L79.4096 79.4123L78.5793 80.2238L74.176 75.7181L74.8647 75.045L81.0809 75.7529L80.7398 76.0863L77.3492 72.6169L78.1795 71.8055Z" fill="white"/>
<path d="M56.5257 86.7878C56.7255 86.7467 56.9098 86.7793 57.0787 86.8854C57.2475 86.9916 57.3549 87.1563 57.4009 87.3796C57.4456 87.5971 57.4114 87.7879 57.2981 87.9521C57.1849 88.1163 57.0284 88.2189 56.8286 88.26C56.617 88.3035 56.4297 88.2716 56.2667 88.1643C56.1038 88.0569 55.9999 87.8945 55.9552 87.6771C55.9092 87.4537 55.9399 87.2606 56.0473 87.0976C56.1547 86.9346 56.3141 86.8314 56.5257 86.7878Z" fill="white"/>
<path d="M34.0363 83.6962C34.4992 83.8631 34.9188 84.0877 35.2954 84.3702C35.6698 84.6583 35.9436 84.9515 36.1167 85.2499L35.4273 85.9676C35.2574 85.6959 35.0199 85.4349 34.7147 85.1845C34.4096 84.9342 34.0735 84.7428 33.7066 84.6106C33.3962 84.4986 33.1328 84.4419 32.9165 84.4405C32.7002 84.439 32.5265 84.4784 32.3955 84.5588C32.2624 84.6447 32.1695 84.7611 32.1166 84.9078C32.0514 85.0885 32.0644 85.2558 32.1556 85.4098C32.2447 85.5695 32.3825 85.7181 32.569 85.8555C32.7477 85.9965 32.9539 86.141 33.1876 86.289C33.4156 86.435 33.6433 86.5905 33.8709 86.7554C34.0907 86.924 34.2837 87.1052 34.4498 87.299C34.6082 87.4964 34.7157 87.7202 34.7723 87.9702C34.8289 88.2202 34.8001 88.5032 34.6862 88.8193C34.5702 89.141 34.3797 89.404 34.1147 89.6082C33.8421 89.8161 33.5023 89.9359 33.0953 89.9678C32.6807 90.0033 32.2025 89.9233 31.6606 89.7279C31.305 89.5997 30.9685 89.4274 30.6512 89.2109C30.3338 88.9944 30.0758 88.7547 29.8772 88.4918L30.5326 87.7618C30.7409 88.0155 30.973 88.2299 31.2287 88.405C31.4825 88.5858 31.7391 88.723 31.9988 88.8166C32.3036 88.9265 32.5652 88.9794 32.7835 88.9752C32.9962 88.969 33.1691 88.9229 33.3022 88.8369C33.4296 88.7489 33.5207 88.6287 33.5757 88.4763C33.6408 88.2957 33.6316 88.1265 33.5482 87.9689C33.457 87.8148 33.321 87.6701 33.1402 87.5348C32.9538 87.3974 32.7447 87.2519 32.5131 87.0982C32.2795 86.9502 32.0517 86.7947 31.8298 86.6318C31.6023 86.4668 31.4083 86.2885 31.2478 86.0967C31.0817 85.9028 30.9732 85.6819 30.9223 85.434C30.8657 85.184 30.8934 84.9037 31.0054 84.5933C31.1193 84.2772 31.3126 84.0153 31.5853 83.8074C31.8503 83.6032 32.1901 83.4833 32.6047 83.4479C33.0173 83.418 33.4945 83.5008 34.0363 83.6962Z" fill="white"/>
<path d="M26.8466 80.386C27.2615 80.6274 27.6086 80.9196 27.888 81.2626C28.1592 81.6078 28.3546 81.9818 28.4743 82.3846C28.5857 82.7896 28.6145 83.2055 28.5606 83.6323C28.5066 84.059 28.362 84.4747 28.1266 84.8792C27.8913 85.2837 27.6014 85.6149 27.2571 85.8727C26.9127 86.1305 26.5359 86.3069 26.1266 86.4019C25.7142 86.5022 25.2925 86.5171 24.8614 86.4468C24.4273 86.3816 24.0002 86.2268 23.5801 85.9824C23.1341 85.7229 22.7722 85.4083 22.4945 85.0385C22.2138 84.6738 22.0339 84.2672 21.9548 83.8185L22.9658 83.5842C23.0392 83.9115 23.1676 84.1979 23.351 84.4434C23.5313 84.6941 23.7641 84.9025 24.0494 85.0684C24.3346 85.2344 24.6237 85.3401 24.9165 85.3855C25.2042 85.428 25.486 85.4149 25.7619 85.3464C26.0326 85.2748 26.2851 85.151 26.5195 84.9749C26.7486 84.7959 26.9446 84.5663 27.1076 84.2863C27.2705 84.0062 27.3732 83.7224 27.4156 83.4347C27.4529 83.144 27.4357 82.8633 27.3641 82.5926C27.2874 82.3188 27.1595 82.0674 26.9804 81.8383C26.7962 81.6061 26.5614 81.4071 26.2762 81.2411C25.991 81.0751 25.6963 80.9731 25.3922 80.935C25.0851 80.9021 24.7696 80.9372 24.4458 81.0404L24.1545 80.0379C24.5806 79.8901 25.023 79.8456 25.4817 79.9042C25.9405 79.9629 26.3954 80.1235 26.8466 80.386Z" fill="white"/>
<path d="M22.677 77.8779L18.5306 82.6211L16.5859 80.9211C15.9535 80.3682 15.5892 79.7868 15.4929 79.1766C15.3922 78.5626 15.5728 77.9913 16.0348 77.4628C16.3389 77.1149 16.6828 76.8856 17.0666 76.7748C17.4464 76.6685 17.8469 76.6799 18.268 76.809C18.6807 76.9386 19.097 77.187 19.5172 77.5543L20.9808 78.8337L20.2383 78.89L21.7961 77.1079L22.677 77.8779ZM19.5736 75.165L19.2684 77.9345L18.3266 77.1112L18.625 74.3357L19.5736 75.165ZM20.3212 78.7951L20.347 79.5588L18.924 78.3148C18.5355 77.9752 18.1711 77.8041 17.8307 77.8014C17.4859 77.7948 17.1831 77.9406 16.9225 78.2387C16.6579 78.5414 16.5539 78.8609 16.6105 79.1973C16.6626 79.5297 16.8829 79.8657 17.2714 80.2053L18.6943 81.4492L17.9222 81.5394L20.3212 78.7951Z" fill="white"/>
<path d="M15.1295 70.1411C15.4267 70.5333 15.6357 70.9432 15.7566 71.371C15.8775 71.7988 15.9156 72.2217 15.8709 72.6395C15.8214 73.0609 15.6919 73.4564 15.4825 73.8258C15.2684 74.1989 14.9748 74.5267 14.6018 74.8094C14.2288 75.092 13.8361 75.2842 13.4238 75.3858C13.0067 75.4911 12.591 75.5087 12.1767 75.4388C11.7575 75.3725 11.3584 75.2232 10.9793 74.9911C10.6001 74.759 10.2638 74.4492 9.97025 74.0619C9.6731 73.6697 9.46589 73.2622 9.34859 72.8391C9.22768 72.4113 9.19198 71.9867 9.24149 71.5652C9.28623 71.1474 9.41568 70.752 9.62983 70.3789C9.83921 70.0095 10.1304 69.6834 10.5034 69.4008C10.8764 69.1181 11.2715 68.9242 11.6885 68.8189C12.1056 68.7136 12.5214 68.696 12.9357 68.7659C13.3501 68.8359 13.7468 68.9869 14.126 69.2191C14.5015 69.4464 14.836 69.7538 15.1295 70.1411ZM14.3172 70.7679C14.1252 70.5145 13.9046 70.3128 13.6554 70.1628C13.4063 70.0128 13.143 69.9187 12.8656 69.8805C12.5834 69.8459 12.3045 69.8653 12.0289 69.9386C11.7448 70.0108 11.4737 70.1448 11.2155 70.3405C10.9572 70.5361 10.7573 70.7591 10.6158 71.0094C10.4658 71.2586 10.3717 71.5219 10.3335 71.7992C10.2905 72.0803 10.3074 72.361 10.3844 72.6414C10.4614 72.9218 10.5959 73.1888 10.788 73.4422C10.98 73.6957 11.2006 73.8974 11.4498 74.0474C11.6953 74.1925 11.961 74.2848 12.2468 74.3242C12.5242 74.3624 12.8049 74.3455 13.0889 74.2733C13.3646 74.1999 13.6315 74.0654 13.8897 73.8697C14.1432 73.6776 14.3449 73.457 14.4949 73.2079C14.6412 72.954 14.7359 72.6865 14.7789 72.4055C14.8171 72.1281 14.7978 71.8492 14.7208 71.5688C14.6438 71.2883 14.5093 71.0214 14.3172 70.7679Z" fill="white"/>
<path d="M11.5994 65.3634L5.94282 68.137L5.42772 67.0865L10.1954 64.7488L8.74525 61.7912L9.63415 61.3553L11.5994 65.3634Z" fill="white"/>
<path d="M8.76546 59.2709L2.73282 61.0867L2.39559 59.9663L7.48025 58.4359L6.53083 55.2816L7.47882 54.9963L8.76546 59.2709Z" fill="white"/>
<path d="M6.26471 44.3066L0 43.6406L0.29111 40.9021C0.363411 40.2219 0.558095 39.6392 0.875159 39.154C1.19222 38.6688 1.59867 38.3077 2.09449 38.0708C2.59031 37.8339 3.15444 37.7491 3.78687 37.8163C4.41334 37.8829 4.94703 38.0844 5.38793 38.4209C5.82287 38.7568 6.14432 39.1952 6.3523 39.7362C6.56028 40.2772 6.62812 40.8878 6.55582 41.568L6.26471 44.3066ZM5.40393 43.0385L5.56565 41.517C5.61512 41.0517 5.56875 40.6364 5.42655 40.2714C5.28434 39.9063 5.06198 39.6141 4.75945 39.3949C4.45756 39.1698 4.09183 39.0343 3.66225 38.9887C3.2267 38.9424 2.84067 38.9979 2.50416 39.1552C2.16231 39.3059 1.8835 39.5448 1.66773 39.8718C1.45195 40.1988 1.31933 40.595 1.26986 41.0604L1.10813 42.5818L5.40393 43.0385Z" fill="white"/>
<path d="M8.38207 32.8512C8.22733 33.3183 8.00798 33.7228 7.72399 34.0649C7.44001 34.4069 7.11321 34.6779 6.74359 34.8778C6.36827 35.0758 5.96909 35.1932 5.54604 35.23C5.1173 35.2649 4.6808 35.2088 4.23655 35.0616C3.7923 34.9145 3.41148 34.6998 3.09411 34.4177C2.77104 34.1337 2.52093 33.8011 2.34378 33.4201C2.16093 33.0371 2.05772 32.6237 2.03414 32.1798C2.01056 31.7358 2.0752 31.2832 2.22804 30.8218C2.38277 30.3548 2.60119 29.9531 2.88328 29.6168C3.16726 29.2747 3.49691 29.0047 3.87223 28.8067C4.24185 28.6068 4.64104 28.4894 5.06978 28.4544C5.49282 28.4176 5.92647 28.4728 6.37073 28.62C6.81498 28.7672 7.19864 28.9828 7.52171 29.2668C7.84478 29.5508 8.09489 29.8833 8.27205 30.2644C8.4492 30.6454 8.54956 31.0579 8.57314 31.5019C8.5986 31.9401 8.53491 32.3899 8.38207 32.8512ZM7.4053 32.5371C7.50531 32.2352 7.54651 31.9392 7.5289 31.6489C7.5113 31.3586 7.43965 31.0884 7.31397 30.8382C7.18259 30.5861 7.00858 30.3672 6.79195 30.1817C6.5715 29.9886 6.3075 29.841 5.99994 29.7391C5.69238 29.6373 5.39537 29.5989 5.10891 29.6241C4.81865 29.6417 4.5484 29.7133 4.29818 29.839C4.04226 29.9628 3.82058 30.1359 3.63315 30.3582C3.44571 30.5805 3.30199 30.8426 3.20198 31.1445C3.10197 31.4464 3.06077 31.7424 3.07837 32.0327C3.09787 32.3173 3.17236 32.5885 3.30185 32.8463C3.42753 33.0965 3.6006 33.3182 3.82104 33.5113C4.03768 33.6968 4.29978 33.8406 4.60734 33.9425C4.90921 34.0425 5.20527 34.0837 5.49554 34.0661C5.78769 34.0428 6.06172 33.9692 6.31764 33.8454C6.56787 33.7197 6.7867 33.5457 6.97413 33.3234C7.16156 33.1011 7.30529 32.839 7.4053 32.5371Z" fill="white"/>
<path d="M11.0954 26.1895L4.66012 24.5657L5.31292 23.5409L11.1187 25.0306L10.7948 25.5392L7.02955 20.8463L7.60981 19.9354L13.4253 21.4099L13.111 21.9033L9.33127 17.2331L9.93088 16.2919L14.1225 21.4378L13.4552 22.4853L8.19732 21.174L8.3714 20.9008L11.7675 25.1344L11.0954 26.1895Z" fill="white"/>
<path d="M16.6196 17.8993L12.284 13.3284L12.9827 12.6657L19.1877 13.4663L18.8416 13.7945L15.5032 10.2749L16.3456 9.47596L20.6811 14.0468L19.9824 14.7096L13.7775 13.909L14.1235 13.5807L17.4619 17.1003L16.6196 17.8993Z" fill="white"/>
<path d="M38.5101 3.27987C38.3096 3.31797 38.1258 3.28268 37.9586 3.174C37.7913 3.06532 37.6864 2.89899 37.6438 2.675C37.6024 2.45691 37.6395 2.26663 37.7552 2.10416C37.8709 1.9417 38.0289 1.84141 38.2294 1.80332C38.4416 1.76298 38.6283 1.7977 38.7897 1.9075C38.951 2.0173 39.0524 2.18125 39.0939 2.39934C39.1365 2.62333 39.1029 2.816 38.9931 2.97734C38.8833 3.13869 38.7223 3.23953 38.5101 3.27987Z" fill="white"/>
</svg>
